<svg width="1200" height="630" viewBox="0 0 1200 630" fill="none" xmlns="http://www.w3.org/2000/svg">
  <rect width="1200" height="630" rx="26" fill="#0F172A"/>
  <rect x="50" y="46" width="1100" height="538" rx="22" fill="#111827" stroke="#334155"/>
  <text x="86" y="112" fill="#F8FAFC" font-family="Segoe UI, Arial" font-size="42" font-weight="700">WebPage Analyzer</text>
  <text x="86" y="150" fill="#94A3B8" font-family="Segoe UI, Arial" font-size="20">Lighthouse, Axe, YellowLabTools, Gemini remediation</text>
  <rect x="86" y="202" width="1028" height="62" rx="16" fill="#020617" stroke="#334155"/>
  <text x="122" y="241" fill="#CBD5E1" font-family="Segoe UI, Arial" font-size="18">https://example.com</text>
  <rect x="926" y="214" width="160" height="38" rx="12" fill="#2563EB"/>
  <text x="970" y="239" fill="white" font-family="Segoe UI, Arial" font-size="16" font-weight="700">Analyze</text>
  <g font-family="Segoe UI, Arial">
    <rect x="86" y="314" width="230" height="110" rx="16" fill="#064E3B"/>
    <text x="118" y="360" fill="#D1FAE5" font-size="18">Performance</text>
    <text x="118" y="396" fill="white" font-size="34" font-weight="700">92</text>
    <rect x="356" y="314" width="230" height="110" rx="16" fill="#1E3A8A"/>
    <text x="388" y="360" fill="#DBEAFE" font-size="18">SEO</text>
    <text x="388" y="396" fill="white" font-size="34" font-weight="700">88</text>
    <rect x="626" y="314" width="230" height="110" rx="16" fill="#581C87"/>
    <text x="658" y="360" fill="#F3E8FF" font-size="18">Accessibility</text>
    <text x="658" y="396" fill="white" font-size="34" font-weight="700">81</text>
    <rect x="86" y="462" width="770" height="74" rx="16" fill="#020617" stroke="#334155"/>
    <text x="118" y="506" fill="#BAE6FD" font-size="18">Gemini suggests: lazy-load heavy assets and add missing aria labels.</text>
    <rect x="896" y="314" width="218" height="222" rx="16" fill="#020617" stroke="#334155"/>
    <text x="926" y="360" fill="#F8FAFC" font-size="18" font-weight="700">Audit Engines</text>
    <text x="926" y="402" fill="#94A3B8" font-size="16">Lighthouse</text>
    <text x="926" y="438" fill="#94A3B8" font-size="16">Axe</text>
    <text x="926" y="474" fill="#94A3B8" font-size="16">YellowLabTools</text>
  </g>
</svg>
